<?xml version="1.0" standalone="no"?>
<!DOCTYPE svg PUBLIC "-//W3C//DTD SVG 20010904//EN"
 "http://www.w3.org/TR/2001/REC-SVG-20010904/DTD/svg10.dtd">
<svg version="1.0" xmlns="http://www.w3.org/2000/svg"
 width="1470.000000pt" height="1470.000000pt" viewBox="0 0 1470.000000 1470.000000"
 preserveAspectRatio="xMidYMid meet">
<metadata>
Created by potrace 1.14, written by Peter Selinger 2001-2017
</metadata>
<g transform="translate(0.000000,1470.000000) scale(0.100000,-0.100000)"
fill="#000000" stroke="none">
<path d="M1565 14683 c-26 -3 -138 -24 -215 -39 -14 -3 -78 -23 -143 -44 -501
-167 -902 -559 -1088 -1062 -35 -95 -76 -256 -86 -343 -10 -77 -10 -11571 -1
-11647 62 -484 348 -943 757 -1216 232 -156 447 -238 751 -289 67 -11 11500
-13 11590 -2 732 91 1324 614 1499 1324 20 82 25 109 40 230 10 84 7 11511 -3
11575 -55 344 -169 612 -364 855 -206 258 -485 459 -792 570 -41 15 -133 41
-205 58 l-130 32 -5790 1 c-3184 1 -5803 -1 -5820 -3z m7565 -2433 c0 -6 -53
-10 -127 -10 -71 0 -236 -1 -368 -1 -132 0 -244 0 -250 1 -5 1 -14 2 -18 1 -8
-1 -359 -2 -544 -1 -51 0 -93 4 -93 9 0 6 269 10 700 10 439 0 700 -3 700 -9z
m27 -202 c-3 -8 -6 -5 -6 6 -1 11 2 17 5 13 3 -3 4 -12 1 -19z m70 -290 c-3
-8 -6 -5 -6 6 -1 11 2 17 5 13 3 -3 4 -12 1 -19z m53 -143 c0 -5 -5 -3 -10 5
-5 8 -10 20 -10 25 0 6 5 3 10 -5 5 -8 10 -19 10 -25z m24 -65 c5 -17 4 -20
-2 -10 -5 8 -13 26 -16 40 -5 17 -4 20 2 10 5 -8 13 -26 16 -40z m211 -409
c337 -529 825 -908 1415 -1100 160 -52 378 -97 515 -107 79 -6 95 -10 95 -22
0 -10 -127 1 -250 22 -486 83 -927 295 -1300 626 -251 223 -460 498 -611 806
-38 77 -69 144 -69 150 0 5 31 -54 69 -131 38 -77 99 -187 136 -244z m-3205
-2741 c8 -5 11 -10 5 -10 -222 -3 -481 -10 -515 -15 -569 -75 -1018 -256
-1474 -594 -362 -269 -723 -724 -906 -1143 -18 -43 -35 -76 -37 -74 -18 17
217 453 316 586 119 160 224 284 352 410 405 402 930 680 1499 794 128 26 162
31 285 42 39 4 72 8 74 10 9 8 388 2 401 -6z m-2944 -1887 c-8 -15 -15 -25
-16 -21 0 12 23 58 27 54 3 -2 -2 -17 -11 -33z m-26 -70 c-11 -17 -11 -17 -6
0 3 10 6 24 7 30 0 9 2 9 5 0 3 -7 0 -20 -6 -30z m-33 -95 c-3 -8 -6 -5 -6 6
-1 11 2 17 5 13 3 -3 4 -12 1 -19z m-40 -130 c-3 -8 -6 -5 -6 6 -1 11 2 17 5
13 3 -3 4 -12 1 -19z m1412 -1223 c0 -5 -4 -3 -9 5 -5 8 -9 22 -9 30 0 16 17
-16 18 -35z m2972 -16 c-5 -13 -10 -19 -10 -12 -1 15 10 45 15 40 3 -2 0 -15
-5 -28z m-2954 -51 c-3 -8 -6 -5 -6 6 -1 11 2 17 5 13 3 -3 4 -12 1 -19z
m2924 -35 c-12 -20 -14 -14 -5 12 4 9 9 14 11 11 3 -2 0 -13 -6 -23z m-2901
-18 c0 -5 -5 -3 -10 5 -5 8 -10 20 -10 25 0 6 5 3 10 -5 5 -8 10 -19 10 -25z
m2849 -96 c-210 -420 -582 -713 -1059 -834 -147 -37 -221 -44 -410 -41 -143 3
-195 8 -285 29 -483 111 -856 410 -1063 850 -49 103 -37 94 16 -13 215 -429
583 -714 1062 -821 92 -20 131 -23 310 -23 189 0 215 2 325 28 219 51 389 122
560 235 111 74 129 88 228 181 123 116 226 254 310 417 23 45 43 80 45 78 2
-1 -16 -41 -39 -86z"/>
</g>
</svg>
